#Comment line ignore any data following # character 
#Hierarchical Translation and Rotation (.htr) file 
[Header]	
#Header keywords are followed by a single value 
FileType HTR		#Single word string
DataType HTRS		#Translation followed by rotation and scale data
FileVersion 1		#integer
NumSegments 64		#integer
NumFrames 3		#integer
DataFrameRate 30		#integer, data frame rate in this file
EulerRotationOrder ZYX
CalibrationUnits mm
RotationUnits Degrees
GlobalAxisofGravity Y
BoneLengthAxis Y
ScaleFactor 1.00
[SegmentNames&Hierarchy]
#CHILD	PARENT
Pinger_Root GLOBAL
Pelvis Pinger_Root
L_Hip Pelvis
R_Hip Pelvis
Rear_Leg01 Pelvis
Spine1 Pelvis
L_Leg01 L_Hip
L_Leg02 L_Leg01
L_Leg03 L_Leg02
L_Foot L_Leg03
L_Toe1_01 L_Foot
L_Toe2_01 L_Foot
L_Toe3_01 L_Foot
planeAlignerLeft L_Foot
L_Toe1_02 L_Toe1_01
L_Toe1_03 L_Toe1_02
L_Toe2_02 L_Toe2_01
L_Toe2_03 L_Toe2_02
L_Toe3_02 L_Toe3_01
L_Toe3_03 L_Toe3_02
planeLockWeightLeft planeAlignerLeft
R_Leg01 R_Hip
R_Leg02 R_Leg01
R_Leg03 R_Leg02
R_Foot R_Leg03
planeAlignerRight R_Foot
R_Toe1_01 R_Foot
R_Toe2_01 R_Foot
R_Toe3_01 R_Foot
planeLockWeightRight planeAlignerRight
R_Toe1_02 R_Toe1_01
R_Toe1_03 R_Toe1_02
R_Toe2_02 R_Toe2_01
R_Toe2_03 R_Toe2_02
R_Toe3_02 R_Toe3_01
R_Toe3_03 R_Toe3_02
Rear_Leg02 Rear_Leg01
Rear_Leg03 Rear_Leg02
Rear_Leg04 Rear_Leg03
Rear_Foot Rear_Leg04
planeAlignerCenter Rear_Foot
Rear_Toe1_01 Rear_Foot
Rear_Toe2_01 Rear_Foot
Rear_Toe3_01 Rear_Foot
planeLockWeightCenter planeAlignerCenter
Rear_Toe1_02 Rear_Toe1_01
Rear_Toe1_03 Rear_Toe1_02
Rear_Toe2_02 Rear_Toe2_01
Rear_Toe2_03 Rear_Toe2_02
Rear_Toe3_02 Rear_Toe3_01
Rear_Toe3_03 Rear_Toe3_02
Back_Bone Spine1
Head Spine1
Motor_Bone Back_Bone
Ping_Mechanism Back_Bone
BN_LookIK Head
bottomMouth Head
L_Mouth01 Head
L_mouthFront Head
mouthGun Head
R_Mouth01 Head
R_mouthFront Head
TopMouth Head
weapon_bone Head
[BasePosition]
#SegmentName Tx, Ty, Tz, Rx, Ry, Rz, BoneLength
Pinger_Root 0.000000 0.000000 0.000000 -90.000000 0.000000 0.000000 10.000000 
Pelvis 0.000000 0.000000 0.000000 0.000000 0.000000 0.000000 10.000000 
L_Hip 0.000000 0.000000 0.000000 0.000000 0.000000 0.000000 10.000000 
R_Hip 0.000000 0.000000 0.000000 0.000000 0.000000 0.000000 10.000000 
Rear_Leg01 0.000000 0.000000 0.000000 0.000000 0.000000 0.000000 10.000000 
Spine1 0.000000 0.000000 0.000000 0.000000 0.000000 0.000000 10.000000 
L_Leg01 0.000000 0.000000 0.000000 0.000000 0.000000 0.000000 10.000000 
L_Leg02 0.000000 0.000000 0.000000 0.000000 0.000000 0.000000 10.000000 
L_Leg03 0.000000 0.000000 0.000000 0.000000 0.000000 0.000000 10.000000 
L_Foot 0.000000 0.000000 0.000000 0.000000 0.000000 0.000000 10.000000 
L_Toe1_01 0.000000 0.000000 0.000000 0.000000 0.000000 0.000000 10.000000 
L_Toe2_01 0.000000 0.000000 0.000000 0.000000 0.000000 0.000000 10.000000 
L_Toe3_01 0.000000 0.000000 0.000000 0.000000 0.000000 0.000000 10.000000 
planeAlignerLeft 0.000000 0.000000 0.000000 0.000000 0.000000 0.000000 10.000000 
L_Toe1_02 0.000000 0.000000 0.000000 0.000000 0.000000 0.000000 10.000000 
L_Toe1_03 0.000000 0.000000 0.000000 0.000000 0.000000 0.000000 10.000000 
L_Toe2_02 0.000000 0.000000 0.000000 0.000000 0.000000 0.000000 10.000000 
L_Toe2_03 0.000000 0.000000 0.000000 0.000000 0.000000 0.000000 10.000000 
L_Toe3_02 0.000000 0.000000 0.000000 0.000000 0.000000 0.000000 10.000000 
L_Toe3_03 0.000000 0.000000 0.000000 0.000000 0.000000 0.000000 10.000000 
planeLockWeightLeft 0.000000 0.000000 0.000000 0.000000 0.000000 0.000000 10.000000 
R_Leg01 0.000000 0.000000 0.000000 0.000000 0.000000 0.000000 10.000000 
R_Leg02 0.000000 0.000000 0.000000 0.000000 0.000000 0.000000 10.000000 
R_Leg03 0.000000 0.000000 0.000000 0.000000 0.000000 0.000000 10.000000 
R_Foot 0.000000 0.000000 0.000000 0.000000 0.000000 0.000000 10.000000 
planeAlignerRight 0.000000 0.000000 0.000000 0.000000 0.000000 0.000000 10.000000 
R_Toe1_01 0.000000 0.000000 0.000000 0.000000 0.000000 0.000000 10.000000 
R_Toe2_01 0.000000 0.000000 0.000000 0.000000 0.000000 0.000000 10.000000 
R_Toe3_01 0.000000 0.000000 0.000000 0.000000 0.000000 0.000000 10.000000 
planeLockWeightRight 0.000000 0.000000 0.000000 0.000000 0.000000 0.000000 10.000000 
R_Toe1_02 0.000000 0.000000 0.000000 0.000000 0.000000 0.000000 10.000000 
R_Toe1_03 0.000000 0.000000 0.000000 0.000000 0.000000 0.000000 10.000000 
R_Toe2_02 0.000000 0.000000 0.000000 0.000000 0.000000 0.000000 10.000000 
R_Toe2_03 0.000000 0.000000 0.000000 0.000000 0.000000 0.000000 10.000000 
R_Toe3_02 0.000000 0.000000 0.000000 0.000000 0.000000 0.000000 10.000000 
R_Toe3_03 0.000000 0.000000 0.000000 0.000000 0.000000 0.000000 10.000000 
Rear_Leg02 0.000000 0.000000 0.000000 0.000000 0.000000 0.000000 10.000000 
Rear_Leg03 0.000000 0.000000 0.000000 0.000000 0.000000 0.000000 10.000000 
Rear_Leg04 0.000000 0.000000 0.000000 0.000000 0.000000 0.000000 10.000000 
Rear_Foot 0.000000 0.000000 0.000000 0.000000 0.000000 0.000000 10.000000 
planeAlignerCenter 0.000000 0.000000 0.000000 0.000000 0.000000 0.000000 10.000000 
Rear_Toe1_01 0.000000 0.000000 0.000000 0.000000 0.000000 0.000000 10.000000 
Rear_Toe2_01 0.000000 0.000000 0.000000 0.000000 0.000000 0.000000 10.000000 
Rear_Toe3_01 0.000000 0.000000 0.000000 0.000000 0.000000 0.000000 10.000000 
planeLockWeightCenter 0.000000 0.000000 0.000000 0.000000 0.000000 0.000000 10.000000 
Rear_Toe1_02 0.000000 0.000000 0.000000 0.000000 0.000000 0.000000 10.000000 
Rear_Toe1_03 0.000000 0.000000 0.000000 0.000000 0.000000 0.000000 10.000000 
Rear_Toe2_02 0.000000 0.000000 0.000000 0.000000 0.000000 0.000000 10.000000 
Rear_Toe2_03 0.000000 0.000000 0.000000 0.000000 0.000000 0.000000 10.000000 
Rear_Toe3_02 0.000000 0.000000 0.000000 0.000000 0.000000 0.000000 10.000000 
Rear_Toe3_03 0.000000 0.000000 0.000000 0.000000 0.000000 0.000000 10.000000 
Back_Bone 0.000000 0.000000 0.000000 0.000000 0.000000 0.000000 10.000000 
Head 0.000000 0.000000 0.000000 0.000000 0.000000 0.000000 10.000000 
Motor_Bone 0.000000 0.000000 0.000000 0.000000 0.000000 0.000000 10.000000 
Ping_Mechanism 0.000000 0.000000 0.000000 0.000000 0.000000 0.000000 10.000000 
BN_LookIK 0.000000 0.000000 0.000000 0.000000 0.000000 0.000000 10.000000 
bottomMouth 0.000000 0.000000 0.000000 0.000000 0.000000 0.000000 10.000000 
L_Mouth01 0.000000 0.000000 0.000000 0.000000 0.000000 0.000000 10.000000 
L_mouthFront 0.000000 0.000000 0.000000 0.000000 0.000000 0.000000 10.000000 
mouthGun 0.000000 0.000000 0.000000 0.000000 0.000000 0.000000 10.000000 
R_Mouth01 0.000000 0.000000 0.000000 0.000000 0.000000 0.000000 10.000000 
R_mouthFront 0.000000 0.000000 0.000000 0.000000 0.000000 0.000000 10.000000 
TopMouth 0.000000 0.000000 0.000000 0.000000 0.000000 0.000000 10.000000 
weapon_bone 0.000000 0.000000 0.000000 0.000000 0.000000 0.000000 10.000000 
#Beginning of Data. Separated by tabs
#Fr	Tx	Ty	Tz	Rx	Ry	Rz	SF
[Pinger_Root]
8 0.000000 0.000000 0.000000 -0.000075 -0.000000 -0.000020 0.000000
9 0.000000 0.000000 0.000000 -0.000075 -0.000000 -0.000020 0.000000
10 0.000000 0.000000 0.000000 -0.000075 -0.000000 -0.000020 0.000000
[Pelvis]
8 110.518761 960.701416 4381.651855 -64.799278 -86.904335 49.852577 4487.096680
9 118.960388 988.409790 4372.284668 -49.074234 -87.411316 31.995605 4484.192383
10 92.657547 1031.844604 4382.948730 -31.650410 -88.763306 12.212669 4503.724121
[L_Hip]
8 5.766392 125.831482 872.656799 157.426651 -50.980091 125.735748 881.701050
9 5.766392 125.831482 872.656799 155.447174 -54.263893 128.222641 881.701050
10 5.766392 125.831482 872.656799 153.031693 -57.487621 131.136307 881.701050
[R_Hip]
8 5.765438 125.836372 -872.654907 39.780350 48.636902 127.937447 881.699829
9 5.765438 125.836372 -872.654907 38.087841 49.812698 125.703743 881.699829
10 5.765438 125.836372 -872.654907 36.030937 55.699818 123.195915 881.699829
[Rear_Leg01]
8 -192.298416 -925.602966 -0.001907 164.128220 8.255632 -157.988327 945.367432
9 -192.298416 -925.602966 -0.001907 162.490219 9.968013 -156.916946 945.367432
10 -192.298416 -925.602966 -0.001907 160.200882 11.248186 -155.777008 945.367432
[Spine1]
8 290.604584 5.007505 0.000477 9.945183 -2.520326 20.643532 290.647736
9 290.604584 5.007505 0.000477 8.876841 -1.647263 21.760962 290.647736
10 290.604584 5.007505 0.000477 7.832066 0.376695 23.328331 290.647736
[L_Leg01]
8 761.932007 -0.002384 -0.069261 20.993246 -14.748525 -10.905551 761.932068
9 761.932007 -0.002384 -0.069261 21.480007 -15.886421 -12.822848 761.932068
10 761.932007 -0.002384 -0.069261 23.584538 -14.940042 -18.517479 761.932068
[L_Leg02]
8 1441.140503 -0.000954 -0.000715 3.007241 -0.189439 -132.730530 1441.140503
9 1441.140503 -0.000954 -0.000715 2.982169 -0.190795 -132.471466 1441.140503
10 1441.140503 -0.000954 -0.000715 2.929294 -0.109483 -128.646332 1441.140503
[L_Leg03]
8 1686.963989 -0.000715 -0.000954 -0.029893 0.014823 118.537064 1686.963989
9 1686.963989 -0.000715 -0.000954 -0.029886 0.014838 118.593918 1686.963989
10 1686.963989 -0.000715 -0.000954 -0.036395 0.017145 120.414543 1686.963989
[L_Foot]
8 3041.570068 -30.715107 11.297464 0.493057 13.060878 58.251392 3041.746094
9 3041.570068 -30.715107 11.297464 0.198615 13.061126 58.988022 3041.746094
10 3041.570068 -30.715107 11.297464 0.336445 13.202279 58.556503 3041.746094
[L_Toe1_01]
8 -188.216690 -224.732346 -21.137953 93.484550 -6.865686 -169.213318 293.899567
9 -188.216690 -224.732346 -21.137953 93.506264 -6.862711 -169.450378 293.899567
10 -188.216690 -224.732346 -21.137953 93.678078 -6.864587 -171.542847 293.899567
[L_Toe2_01]
8 200.746536 -219.926590 148.838394 -88.983604 -25.453876 -55.743568 332.896027
9 200.746536 -219.926590 148.838394 -89.069511 -25.527779 -55.490215 332.896027
10 200.746536 -219.926590 148.838394 -89.826866 -26.161430 -53.303864 332.896027
[L_Toe3_01]
8 188.832520 -219.859131 -191.078659 -100.212685 12.928463 -71.061340 347.140900
9 188.832520 -219.859131 -191.078659 -100.183487 13.003870 -70.784683 347.140900
10 188.832520 -219.859131 -191.078659 -99.870964 13.677337 -68.346954 347.140900
[planeAlignerLeft]
8 32.988892 -638.582275 101.078110 169.306686 -76.298271 89.968506 647.373413
9 32.988892 -634.744995 101.078949 169.306686 -76.298271 89.968506 643.588684
10 32.489014 -601.002991 101.086121 169.306686 -76.298271 89.968506 610.310181
[L_Toe1_02]
8 413.761139 0.000477 0.000000 0.001384 -25.977406 0.001384 413.761139
9 413.761139 0.000477 0.000000 0.001384 -25.972334 0.001384 413.761139
10 413.761139 0.000477 0.000000 0.001384 -25.967260 0.001384 413.761139
[L_Toe1_03]
8 464.317322 0.000358 -0.000089 0.003541 51.287254 0.003541 464.317322
9 464.317322 0.000358 -0.000089 0.003558 51.484833 0.003558 464.317322
10 464.317322 0.000358 -0.000089 0.003705 53.063068 0.003705 464.317322
[L_Toe2_02]
8 342.235809 -0.000477 0.000238 0.001191 -70.410423 0.001191 342.235809
9 342.235809 -0.000477 0.000238 0.001191 -70.586075 0.001191 342.235809
10 342.235809 -0.000477 0.000238 0.001188 -72.217560 0.001188 342.235809
[L_Toe2_03]
8 420.210846 -0.000715 0.000000 0.014198 80.517075 0.014198 420.210846
9 420.210846 -0.000715 0.000000 0.014868 80.945450 0.014868 420.210846
10 420.210846 -0.000715 0.000000 0.024750 84.564079 0.024750 420.210846
[L_Toe3_02]
8 329.270111 0.000954 0.000000 0.001179 -78.786880 0.001179 329.270111
9 329.270111 0.000954 0.000000 0.001179 -78.946960 0.001179 329.270111
10 329.270111 0.000954 0.000000 0.001178 -80.302620 0.001178 329.270111
[L_Toe3_03]
8 439.137451 -0.001907 0.000954 -179.989349 84.684410 -179.985855 439.137451
9 439.137451 -0.001907 0.000954 -179.990479 84.156952 -179.986969 439.137451
10 439.137451 -0.001907 0.000954 -179.995392 79.644951 -179.991882 439.137451
[planeLockWeightLeft]
8 999.999146 0.098267 0.076157 -0.011826 -0.004376 0.005620 999.999146
9 999.999146 0.098267 0.076156 -0.011826 -0.004376 0.005620 999.999146
10 999.999146 0.098267 0.076156 -0.011826 -0.004376 0.005620 999.999146
[R_Leg01]
8 761.455627 -0.001907 -0.000358 113.328545 -14.744932 32.881550 761.455688
9 761.455627 -0.001907 -0.000358 111.061615 -15.246801 36.087376 761.455688
10 761.455627 -0.001907 -0.000358 105.074249 -21.256294 43.748459 761.455688
[R_Leg02]
8 1441.140625 0.000000 -0.000238 -1.527854 -0.278937 -124.225777 1441.140625
9 1441.140625 0.000000 -0.000238 -1.500532 -0.256360 -123.463974 1441.140625
10 1441.140625 0.000000 -0.000238 -1.775838 -0.201815 -123.327316 1441.140625
[R_Leg03]
8 1686.963989 0.000954 0.001431 0.081852 -0.046853 132.517807 1686.963989
9 1686.963989 0.000954 0.001431 0.080025 -0.042017 132.074387 1686.963989
10 1686.963989 0.000954 0.001431 0.067863 -0.035331 129.244263 1686.963989
[R_Foot]
8 3041.560059 -30.531288 -11.204481 -6.983361 -24.481504 54.941212 3041.734131
9 3041.560059 -30.531288 -11.204481 -8.488628 -24.482660 54.677139 3041.734131
10 3041.560059 -30.531288 -11.204481 -7.344661 -24.374516 55.460747 3041.734131
[planeAlignerRight]
8 -126.942146 -506.448853 -362.518219 -30.465471 -66.041145 -70.054977 635.628967
9 -127.113953 -492.398132 -373.128754 -29.600439 -65.038307 -70.825531 630.744751
10 -124.496147 -533.255615 -379.184723 -27.889139 -67.181389 -73.081757 666.064514
[R_Toe1_01]
8 -188.383347 -224.864899 21.052242 70.982231 0.969005 -174.790588 294.101532
9 -188.383347 -224.864899 21.052242 69.893623 1.329077 -175.192703 294.101532
10 -188.383347 -224.864899 21.052242 71.750877 3.509024 -173.751389 294.101532
[R_Toe2_01]
8 200.637817 -220.002121 -148.787384 -87.001175 39.614532 -54.356560 332.857574
9 200.637817 -220.002121 -148.787384 -86.019516 40.944756 -53.318581 332.857574
10 200.637817 -220.002121 -148.787384 -87.344597 38.057800 -56.584293 332.857574
[R_Toe3_01]
8 188.606735 -220.092957 191.126343 -71.929077 -2.349583 -72.898743 347.192566
9 188.606735 -220.092957 191.126343 -71.705528 -1.125472 -72.644585 347.192566
10 188.606735 -220.092957 191.126343 -71.237686 -2.531468 -75.123489 347.192566
[planeLockWeightRight]
8 999.999451 0.000194 0.075909 -0.011823 -0.004379 -0.000027 999.999451
9 999.999451 0.000222 0.075891 -0.011823 -0.004379 -0.000027 999.999451
10 999.999390 0.000250 0.075873 -0.011823 -0.004379 -0.000027 999.999390
[R_Toe1_02]
8 413.762085 0.000477 -0.000119 0.001396 -24.455765 0.001396 413.762085
9 413.762085 0.000477 -0.000119 0.001396 -24.426662 0.001396 413.762085
10 413.762085 0.000477 -0.000119 0.001393 -24.793070 0.001393 413.762085
[R_Toe1_03]
8 464.317810 0.000000 0.001088 0.007056 70.850883 0.007056 464.317810
9 464.317810 0.000000 0.001088 0.007107 70.990547 0.007107 464.317810
10 464.317810 0.000000 0.001088 0.006461 69.070221 0.006461 464.317810
[R_Toe2_02]
8 342.234741 -0.000954 0.000238 0.001194 -68.568649 0.001194 342.234741
9 342.234741 -0.000954 0.000238 0.001194 -68.676445 0.001194 342.234741
10 342.234741 -0.000954 0.000238 0.001199 -66.415474 0.001199 342.234741
[R_Toe2_03]
8 420.210846 0.000715 -0.000268 0.009925 76.417664 0.009925 420.210846
9 420.210846 0.000715 -0.000268 0.010107 76.663368 0.010107 420.210846
10 420.210846 0.000715 -0.000268 -0.005449 72.026573 -0.001909 420.210846
[R_Toe3_02]
8 329.270355 -0.000477 -0.000954 0.001183 -75.500504 0.001183 329.270355
9 329.270355 -0.000477 -0.000954 0.001183 -75.885689 0.001183 329.270355
10 329.270355 -0.000477 -0.000954 0.001184 -74.649170 0.001184 329.270355
[R_Toe3_03]
8 439.137939 0.000238 0.001431 -0.018629 86.097511 -0.015131 439.137939
9 439.137939 0.000238 0.001431 -0.022488 86.823807 -0.018990 439.137939
10 439.137939 0.000238 0.001431 -0.012045 83.598434 -0.008542 439.137939
[Rear_Leg02]
8 1162.777710 -0.029802 0.005960 0.636612 -2.916110 -123.765594 1162.777710
9 1162.777710 -0.029802 0.005960 0.607877 -2.923402 -123.163803 1162.777710
10 1162.777710 -0.029802 0.005960 0.464516 -2.949311 -120.271149 1162.777710
[Rear_Leg03]
8 607.192505 -0.013351 -0.073195 0.006472 -0.002120 64.491142 607.192505
9 607.192505 -0.013351 -0.073195 0.006476 -0.002107 64.263229 607.192505
10 607.192505 -0.013351 -0.073195 0.006496 -0.002046 63.180145 607.192505
[Rear_Leg04]
8 995.874512 -0.020504 -0.011921 -0.040566 -0.015030 58.613304 995.874573
9 995.874512 -0.020504 -0.011921 -0.040509 -0.015184 58.177032 995.874573
10 995.874512 -0.020504 -0.011921 -0.040220 -0.015934 56.048626 995.874573
[Rear_Foot]
8 3096.176270 -0.067472 -0.041425 -133.629623 86.588318 60.419853 3096.176270
9 3096.176270 -0.067472 -0.041425 -129.752411 86.809845 64.927689 3096.176270
10 3096.176270 -0.067472 -0.041425 -114.807556 87.311104 80.700089 3096.176270
[planeAlignerCenter]
8 1.038857 -15.214500 -777.173279 12.236996 -0.133832 179.933701 777.322876
9 1.038740 -15.214539 -777.174927 12.236468 -0.152741 179.924484 777.324585
10 -1.229650 -15.171203 -754.173218 12.235943 -0.171650 179.915268 754.326782
[Rear_Toe1_01]
8 0.653352 83.966492 -371.173737 0.292486 41.917389 90.413589 380.553192
9 0.653352 83.966492 -371.173737 0.291862 41.917866 90.413193 380.553192
10 0.653352 83.966492 -371.173737 0.542989 40.258698 90.529533 380.553192
[Rear_Toe2_01]
8 178.200760 -294.826019 -362.060547 -7.196267 34.406261 -66.271294 499.765686
9 178.200760 -294.826019 -362.060547 -7.196268 34.406261 -66.271294 499.765686
10 178.200760 -294.826019 -362.060547 -7.558489 33.326096 -66.590790 499.765686
[Rear_Toe3_01]
8 -153.359680 -308.780914 -362.060852 3.289418 33.518005 -112.540970 499.952881
9 -153.359680 -308.780914 -362.060852 3.289420 33.518005 -112.540970 499.952881
10 -153.359680 -308.780914 -362.060852 3.171393 32.277561 -112.781273 499.952881
[planeLockWeightCenter]
8 1000.000122 0.000000 0.076318 -0.011814 -0.004373 -0.000015 1000.000122
9 1000.000122 0.000000 0.076325 -0.011814 -0.004373 -0.000015 1000.000122
10 1000.000122 0.000000 0.076331 -0.011814 -0.004373 -0.000015 1000.000122
[Rear_Toe1_02]
8 379.707825 0.194073 0.000477 -0.000242 -31.676744 0.006934 379.707855
9 379.707825 0.194073 0.000477 -0.000242 -31.676748 0.006934 379.707855
10 379.707825 0.194073 0.000477 0.000522 -32.418419 0.004152 379.707855
[Rear_Toe1_03]
8 500.129700 0.165701 0.000119 -0.000103 51.902466 0.007295 500.129761
9 500.129700 0.165701 0.000119 -0.000103 51.902485 0.007295 500.129761
10 500.129700 0.165701 0.000119 0.000329 55.768646 0.007646 500.129761
[Rear_Toe2_02]
8 340.494507 0.000238 -0.000954 0.001192 -69.854523 0.001192 340.494507
9 340.494507 0.000238 -0.000954 0.001192 -69.854523 0.001192 340.494507
10 340.494507 0.000238 -0.000954 0.001191 -70.543640 0.001191 340.494507
[Rear_Toe2_03]
8 433.103577 0.000000 0.000238 0.006696 69.810341 0.006696 433.103546
9 433.103577 0.000000 0.000238 0.006696 69.810326 0.006696 433.103546
10 433.103577 0.000000 0.000238 0.007060 70.863007 0.007060 433.103546
[Rear_Toe3_02]
8 340.494141 -0.000358 -0.000477 0.008288 -67.274704 -0.009460 340.494171
9 340.494141 -0.000358 -0.000477 0.008288 -67.274704 -0.009460 340.494171
10 340.494141 -0.000358 -0.000477 0.001196 -67.869774 0.001196 340.494171
[Rear_Toe3_03]
8 433.103577 0.001431 -0.000238 -0.000972 65.958984 -0.004547 433.103546
9 433.103577 0.001431 -0.000238 -0.000972 65.958984 -0.004547 433.103546
10 433.103577 0.001431 -0.000238 -0.001079 66.845581 -0.004648 433.103546
[Back_Bone]
8 1312.175781 -701.934692 0.000954 0.000023 -0.000007 -85.606667 1488.125488
9 1312.175781 -701.934692 0.000954 0.000023 -0.000007 -85.606667 1488.125488
10 1312.175781 -701.934692 0.000954 0.000023 -0.000007 -85.606667 1488.125488
[Head]
8 1406.159424 809.709290 0.001431 0.000008 0.000003 7.767519 1622.625488
9 1406.159424 809.709290 0.001431 0.000008 0.000003 7.767519 1622.625488
10 1406.159424 809.709290 0.001431 0.000008 0.000003 7.767519 1622.625488
[Motor_Bone]
8 1158.364380 -417.834747 0.000477 -0.094966 3.451770 -105.711754 1231.419434
9 1158.364380 -417.834747 0.000477 -0.089378 5.178355 -105.608627 1231.419434
10 1158.364380 -417.834747 0.000477 -0.080640 6.905320 -105.504959 1231.419434
[Ping_Mechanism]
8 1230.747925 -440.838013 5.175391 0.000103 -0.000053 82.120995 1307.327515
9 1226.517456 -438.999023 5.986267 0.000103 -0.000053 82.120995 1302.728394
10 1220.981689 -436.301270 1.494359 0.000103 -0.000053 82.120995 1296.594482
[BN_LookIK]
8 193.241119 1380.371704 -0.002861 0.000000 89.965736 -31.038179 1393.832153
9 193.241119 1380.371704 -0.002861 0.000000 89.965736 -31.038179 1393.832153
10 193.241119 1380.371704 -0.002861 0.000000 89.965736 -31.038179 1393.832153
[bottomMouth]
8 -435.092926 615.759399 -0.000954 -0.000022 0.000016 73.527184 753.966492
9 -435.092926 615.759399 -0.000954 -0.000022 0.000016 73.527184 753.966492
10 -435.092926 615.759399 -0.000954 -0.000022 0.000016 73.527184 753.966492
[L_Mouth01]
8 554.440979 7.658243 838.222046 150.204178 23.759130 109.605339 1005.027161
9 554.440979 7.658243 838.222046 150.204178 23.759130 109.605339 1005.027161
10 554.440979 7.658243 838.222046 150.204178 23.759130 109.605339 1005.027161
[L_mouthFront]
8 551.629089 934.514771 339.150421 0.000081 2.804060 79.119301 1136.941284
9 551.629089 934.514771 339.150421 0.000081 2.804060 79.119301 1136.941284
10 551.629089 934.514771 339.150421 0.000081 2.804060 79.119301 1136.941284
[mouthGun]
8 55.332661 1627.420898 0.000000 0.000023 0.000009 -11.038128 1628.361328
9 55.332661 1627.420898 0.000000 0.000023 0.000009 -11.038128 1628.361328
10 55.332661 1627.420898 0.000000 0.000023 0.000009 -11.038128 1628.361328
[R_Mouth01]
8 554.442383 7.659197 -838.223938 29.795891 -23.759109 109.605331 1005.029541
9 554.442383 7.659197 -838.223938 29.795891 -23.759109 109.605331 1005.029541
10 554.442383 7.659197 -838.223938 29.795891 -23.759109 109.605331 1005.029541
[R_mouthFront]
8 551.629089 934.514282 -339.151367 0.000029 -2.803930 79.119133 1136.941162
9 551.629089 934.514282 -339.151367 0.000029 -2.803930 79.119133 1136.941162
10 551.629089 934.514282 -339.151367 0.000029 -2.803930 79.119133 1136.941162
[TopMouth]
8 461.269867 -56.106091 -0.008583 -0.000059 -0.000268 92.025169 464.669525
9 461.269867 -56.106091 -0.008583 -0.000059 -0.000268 92.025169 464.669525
10 461.269867 -56.106091 -0.008583 -0.000059 -0.000268 92.025169 464.669525
[weapon_bone]
8 -987.239868 1448.372803 0.001431 0.000000 89.965736 -31.038221 1752.833740
9 -987.239868 1448.372803 0.001431 0.000000 89.965736 -31.038221 1752.833740
10 -987.239868 1448.372803 0.001431 0.000000 89.965736 -31.038221 1752.833740
